<svg id="Layer_1" data-name="Layer 1" xmlns="http://www.w3.org/2000/svg" width="301" height="100" viewBox="0 0 301 100">
  <defs>
    <style>
      .cls-1 {
        fill: #001b71;
      }

      .cls-2 {
        fill: #10cfc9;
      }

      .cls-3 {
        fill: #fff;
      }
    </style>
  </defs>
  <title>CopyMart-GDL-Logo</title>
  <g>
    <g>
      <g>
        <path class="cls-1" d="M271.73,36a9.82,9.82,0,0,0-9.9-9.31H246V55h4.13a1,1,0,0,0,1-1V49h0V39.32h0V31.84h10.79a4.62,4.62,0,0,1,4.66,4.21,4.52,4.52,0,0,1-4.5,4.83h-8.43L256,45a2.06,2.06,0,0,0,1.78,1h2.75l4.91,8.5a1,1,0,0,0,.9.51h5.36L266,45.18A9.67,9.67,0,0,0,271.73,36Z"/>
        <path class="cls-1" d="M205,17.12,187.76,37.86,170.57,17.13a2.07,2.07,0,0,0-1.59-.75h-.56V55h5.16V28.84l14.18,17.1,14.17-17.1V54a1,1,0,0,0,1,1h4.13V16.38h-.56A2.05,2.05,0,0,0,205,17.12Z"/>
        <path class="cls-1" d="M272.15,26.69l2.38,4.13a2.07,2.07,0,0,0,1.79,1h7.43V55h4.12a1,1,0,0,0,1-1V31.84h7.43a2.07,2.07,0,0,0,1.78-1l2.39-4.13Z"/>
        <path class="cls-1" d="M228.72,26.69h-4.79A6.19,6.19,0,0,0,218,31l-7.49,24h4.64a1,1,0,0,0,1-.72l6.79-21.75a1,1,0,0,1,1-.73h4.79a1,1,0,0,1,1,.73l2.59,8.3h-9.42L225.26,45A2,2,0,0,0,227,46h6.86l2.59,8.3a1,1,0,0,0,1,.72h4.64l-7.5-24A6.15,6.15,0,0,0,228.72,26.69Z"/>
      </g>
      <path class="cls-2" d="M53.53,95.93,175.09,60a1,1,0,0,0,.66-1.39L153,4.07a1,1,0,0,0-.95-.64H1.53A1,1,0,0,0,.58,4.86L34.87,87.05A15.46,15.46,0,0,0,53.53,95.93Z"/>
      <path class="cls-3" d="M56.4,46.45A14.19,14.19,0,1,1,56.4,25a1,1,0,0,0,1.4-.05l3-2.95a19.33,19.33,0,1,0,0,27.46l-3-2.94A1,1,0,0,0,56.4,46.45Z"/>
      <path class="cls-3" d="M77.27,55A14.18,14.18,0,1,1,91.45,40.87,14.19,14.19,0,0,1,77.27,55Zm0-23.2a9,9,0,1,0,9,9A9,9,0,0,0,77.27,31.84Z"/>
      <path class="cls-3" d="M112.12,26.69H96.25V55h4.13a1,1,0,0,0,1-1V46h0V40.88h0v-9H112.2a4.62,4.62,0,0,1,4.66,4.21,4.52,4.52,0,0,1-4.5,4.83h-8.43L106.32,45a2,2,0,0,0,1.78,1h4.26A9.68,9.68,0,0,0,122,36,9.82,9.82,0,0,0,112.12,26.69Z"/>
      <path class="cls-3" d="M145.76,41.77l5-15.08H146.8a2,2,0,0,0-2,1.41l-4,12.06a1,1,0,0,1-1,.71H135a1,1,0,0,1-1-.71l-4-12.06a2.07,2.07,0,0,0-2-1.41h-3.94l5,15.08A6.19,6.19,0,0,0,134.87,46v9H139a1,1,0,0,0,1-1V46A6.18,6.18,0,0,0,145.76,41.77Z"/>
    </g>
    <g>
      <path class="cls-2" d="M200,74.12a4.83,4.83,0,0,1-2.24,1.66,9.41,9.41,0,0,1-3.33.54,6.64,6.64,0,0,1-3.42-.87A5.83,5.83,0,0,1,188.68,73a8.17,8.17,0,0,1-.84-3.73V67.92a7.81,7.81,0,0,1,1.66-5.33,5.89,5.89,0,0,1,4.67-1.89,6.15,6.15,0,0,1,4,1.22A5.28,5.28,0,0,1,200,65.37H197.9a3.4,3.4,0,0,0-3.72-3A3.73,3.73,0,0,0,191,63.76a6.72,6.72,0,0,0-1.08,4.1V69.1a6.29,6.29,0,0,0,1.21,4.07,4,4,0,0,0,3.28,1.51,7.35,7.35,0,0,0,2-.25,3.1,3.1,0,0,0,1.45-.84V70.18h-3.65V68.54H200Z"/>
      <path class="cls-2" d="M209.8,75a4.35,4.35,0,0,1-3.43,1.32,3.7,3.7,0,0,1-2.85-1,4.36,4.36,0,0,1-1-3.1V64.82h2v7.3c0,1.71.72,2.56,2.16,2.56A3,3,0,0,0,209.74,73V64.82h2V76.11h-1.9Z"/>
      <path class="cls-2" d="M221.45,76.11a4.39,4.39,0,0,1-.28-1.19,4.51,4.51,0,0,1-3.33,1.4,4.23,4.23,0,0,1-2.84-.94,3,3,0,0,1-1.11-2.4,3.18,3.18,0,0,1,1.39-2.74,6.74,6.74,0,0,1,3.91-1h1.95v-.88a2.13,2.13,0,0,0-.63-1.62,2.56,2.56,0,0,0-1.85-.6,3,3,0,0,0-1.79.53,1.49,1.49,0,0,0-.73,1.26h-2a2.62,2.62,0,0,1,.62-1.63,4.18,4.18,0,0,1,1.69-1.25,5.78,5.78,0,0,1,2.34-.46,4.73,4.73,0,0,1,3.17,1,3.47,3.47,0,0,1,1.19,2.69v5.2a6.28,6.28,0,0,0,.41,2.48v.16Zm-3.32-1.47a3.55,3.55,0,0,0,1.79-.47A2.87,2.87,0,0,0,221.14,73V70.63h-1.57c-2.45,0-3.68.7-3.68,2.08a1.72,1.72,0,0,0,.63,1.42A2.48,2.48,0,0,0,218.13,74.64Z"/>
      <path class="cls-2" d="M225.24,70.37a6.4,6.4,0,0,1,1.28-4.18,4.43,4.43,0,0,1,6.59-.22V60.08h2v16h-1.84l-.1-1.21a4.13,4.13,0,0,1-3.34,1.42,4,4,0,0,1-3.32-1.6,6.59,6.59,0,0,1-1.28-4.2Zm2,.22a4.89,4.89,0,0,0,.82,3,2.7,2.7,0,0,0,2.27,1.08A2.93,2.93,0,0,0,233.11,73V67.84a3,3,0,0,0-2.75-1.59,2.7,2.7,0,0,0-2.3,1.09A5.37,5.37,0,0,0,227.24,70.59Z"/>
      <path class="cls-2" d="M244.89,76.11a4,4,0,0,1-.28-1.19,4.51,4.51,0,0,1-3.33,1.4,4.21,4.21,0,0,1-2.84-.94,3,3,0,0,1-1.11-2.4,3.15,3.15,0,0,1,1.39-2.74,6.74,6.74,0,0,1,3.91-1h2v-.88a2.13,2.13,0,0,0-.63-1.62,2.57,2.57,0,0,0-1.85-.6,3,3,0,0,0-1.79.53,1.49,1.49,0,0,0-.73,1.26h-2a2.62,2.62,0,0,1,.62-1.63,4.12,4.12,0,0,1,1.69-1.25,5.78,5.78,0,0,1,2.34-.46,4.75,4.75,0,0,1,3.17,1,3.5,3.5,0,0,1,1.19,2.69v5.2A6.28,6.28,0,0,0,247,76v.16Zm-3.32-1.47a3.58,3.58,0,0,0,1.79-.47A2.87,2.87,0,0,0,244.58,73V70.63H243c-2.45,0-3.68.7-3.68,2.08a1.72,1.72,0,0,0,.63,1.42A2.46,2.46,0,0,0,241.57,74.64Z"/>
      <path class="cls-2" d="M251.34,76.11h-2v-16h2Z"/>
      <path class="cls-2" d="M261.21,76.11a4,4,0,0,1-.28-1.19,4.51,4.51,0,0,1-3.33,1.4,4.21,4.21,0,0,1-2.84-.94,3,3,0,0,1-1.11-2.4A3.15,3.15,0,0,1,255,70.24a6.74,6.74,0,0,1,3.91-1h1.95v-.88a2.13,2.13,0,0,0-.63-1.62,2.59,2.59,0,0,0-1.85-.6,3,3,0,0,0-1.8.53A1.5,1.5,0,0,0,255.9,68h-2a2.56,2.56,0,0,1,.62-1.63,4.12,4.12,0,0,1,1.69-1.25,5.78,5.78,0,0,1,2.34-.46,4.75,4.75,0,0,1,3.17,1,3.5,3.5,0,0,1,1.19,2.69v5.2a6.28,6.28,0,0,0,.41,2.48v.16Zm-3.32-1.47a3.51,3.51,0,0,0,1.78-.47A2.89,2.89,0,0,0,260.9,73V70.63h-1.57c-2.45,0-3.68.7-3.68,2.08a1.72,1.72,0,0,0,.63,1.42A2.46,2.46,0,0,0,257.89,74.64Z"/>
      <path class="cls-2" d="M267.55,64.82v12.6q0,3.26-3.06,3.26a3.78,3.78,0,0,1-1.23-.19V79a3.76,3.76,0,0,0,.91.09,1.39,1.39,0,0,0,1-.35,1.68,1.68,0,0,0,.36-1.22V64.82Zm-2.21-3a1.13,1.13,0,0,1,.3-.79,1.12,1.12,0,0,1,.87-.33,1.16,1.16,0,0,1,.89.33,1.11,1.11,0,0,1,.3.79,1.09,1.09,0,0,1-.3.78,1.2,1.2,0,0,1-.89.32,1.16,1.16,0,0,1-.88-.32A1.12,1.12,0,0,1,265.34,61.82Z"/>
      <path class="cls-2" d="M277.44,76.11a4,4,0,0,1-.28-1.19,4.51,4.51,0,0,1-3.33,1.4,4.23,4.23,0,0,1-2.84-.94,3,3,0,0,1-1.11-2.4,3.18,3.18,0,0,1,1.39-2.74,6.74,6.74,0,0,1,3.91-1h1.95v-.88a2.13,2.13,0,0,0-.63-1.62,2.57,2.57,0,0,0-1.85-.6,3,3,0,0,0-1.79.53,1.49,1.49,0,0,0-.73,1.26h-2a2.62,2.62,0,0,1,.62-1.63,4.18,4.18,0,0,1,1.69-1.25,5.78,5.78,0,0,1,2.34-.46,4.73,4.73,0,0,1,3.17,1,3.47,3.47,0,0,1,1.19,2.69v5.2a6.28,6.28,0,0,0,.41,2.48v.16Zm-3.32-1.47a3.58,3.58,0,0,0,1.79-.47A2.87,2.87,0,0,0,277.13,73V70.63h-1.57c-2.45,0-3.68.7-3.68,2.08a1.72,1.72,0,0,0,.63,1.42A2.48,2.48,0,0,0,274.12,74.64Z"/>
      <path class="cls-2" d="M287.37,66.55a6,6,0,0,0-1-.07,2.63,2.63,0,0,0-2.67,1.62v8h-2V64.82h2l0,1.3a3.14,3.14,0,0,1,2.79-1.51,2.26,2.26,0,0,1,.89.14Z"/>
      <path class="cls-2" d="M295.45,76.11a3.74,3.74,0,0,1-.28-1.19,4.51,4.51,0,0,1-3.33,1.4,4.21,4.21,0,0,1-2.84-.94,3,3,0,0,1-1.11-2.4,3.15,3.15,0,0,1,1.39-2.74,6.72,6.72,0,0,1,3.91-1h1.95v-.88a2.13,2.13,0,0,0-.63-1.62,2.59,2.59,0,0,0-1.85-.6,3,3,0,0,0-1.8.53,1.5,1.5,0,0,0-.72,1.26h-2a2.56,2.56,0,0,1,.62-1.63,4.12,4.12,0,0,1,1.69-1.25,5.78,5.78,0,0,1,2.34-.46,4.75,4.75,0,0,1,3.17,1,3.5,3.5,0,0,1,1.19,2.69v5.2a6.1,6.1,0,0,0,.41,2.48v.16Zm-3.32-1.47a3.51,3.51,0,0,0,1.78-.47A2.89,2.89,0,0,0,295.14,73V70.63h-1.57c-2.45,0-3.68.7-3.68,2.08a1.72,1.72,0,0,0,.63,1.42A2.46,2.46,0,0,0,292.13,74.64Z"/>
    </g>
  </g>
</svg>
